<?xml
version="1.0" encoding="iso-8859-1"?>
<!-- Generator: Adobe Illustrator 16.0.0, SVG Export Plug-In . SVG
version: 6.00 Build 0)  -->
<!DOCTYPE svg PUBLIC "-//W3C//DTD SVG 1.1//EN" "http://www.w3.org/Graphics/SVG/1.1/DTD/svg11.dtd">
<svg version="1.1" id="Capa_1" xmlns="http://www.w3.org/2000/svg" xmlns:xlink="http://www.w3.org/1999/xlink" x="0px"
    y="0px" width="48px" height="48px" viewBox="0 0 48 48" style="enable-background:new 0 0 48.723 48.723;"
    xml:space="preserve">
    <g id="logo">
        <!-- top
monitor -->
        <path d="
            m 13.5 18
            h 6.9
            v 2.6
            h 3.1
            v 0.2
            h -5.4
            v 0.5
            h 9.8
            v -0.5
            h -4.4
            v -0.2
            h 0
            h 2.1
            v -2.6
            h 7.1
            v -12.1
            h -19.2
            z
            m 1.9 -10.7
            h 15.3
            v 8.8
            h -15.3
            v -8.8
            v 0
            m 7.1 0
            v 0
            h 8.2
            v 8.3
            h 1.8
            v 0.2
            h 0
            v 0.5
            h 4.4
            v -0.5
            h -4.4
            v -0.2
            h 0
            h 2.1
            v -2.6
            h 7.1
            v -12.1
            h -19.2
            z
            m 1.9 -5
            h 15.3
            v 8.8
            h -9
            v -5.2
            h -6.3
            v -3.6" />
        <!-- left bottom monitor -->
        <path d="
            M 1 43
            h 6.9
            v 2.6
            h 3.1
            v 0.2
            h -5.4
            v 0.5
            h 9.8
            v -0.5
            h -4.4
            v -0.2
            h 0
            h 2.1
            v -2.6
            h 7.1
            v -12.1
            h -19.2
            z
            m 1.9 -10.7
            h 15.3
            v 8.8
            h -15.3
            v -8.8
            v 0" />

        <!-- right bottom monitor -->
        <path d="
            M 26 43
            h 6.9
            v 2.6
            h 3.1
            v 0.2
            h -5.4
            v 0.5
            h 9.8
            v -0.5
            h -4.4
            v -0.2
            h 0
            h 2.1
            v -2.6
            h 7.1
            v -12.1
            h -19.2
            z
            m 1.9 -10.7
            h 15.3
            v 8.8
            h -15.3
            v -8.8
            v 0" />

        <!-- network bus -->
        <path d="
            M 6.5 26
            h 3.435
            v 5.701
            h 0.633
            c 0.001 0 0.001 0 0.002 0
            h 0.636
            v -5.701
            h 3.51
            v -1.059
            h 17.124
            v 1.104
            h 3.178
            v 5.656
            h 0.619
            c 0 0 0 0 0.002 0
            h 0.619
            v -5.656
            h 3.736
            v -0.856
            c 0 -0.012 0.006 -0.021 0.006 -0.032
            c 0 -0.072 0 -0.143 0 -0.215
            h 5.721
            v -1.316
            h -5.721
            c 0 -0.054 0 -0.108 0 -0.164
            c 0 -0.011 -0.006 -0.021 -0.006 -0.032
            v -0.832
            h -8.154
            v 1.028
            h -7.911
            v -2.652
            h -0.689
            c -0.001 0 -0.001 0 -0.002 0
            h -0.678
            v 2.652
            h -7.846
            v -1.104
            h -8.214
            v 1.104
            h -6.338
            v 1.316
            h 6.338
            v 1.058
            z" />
    </g>
</svg>